<svg width="101" height="16" viewBox="0 0 101 16" fill="none" xmlns="http://www.w3.org/2000/svg">
<path d="M0.42 15V0.899999H5.94C7.54 0.899999 8.9 1.18 10.02 1.74C11.1533 2.28667 12.0133 3.08667 12.6 4.14C13.2 5.18 13.5 6.44667 13.5 7.94C13.5 9.43333 13.2 10.7067 12.6 11.76C12.0133 12.8133 11.1533 13.62 10.02 14.18C8.9 14.7267 7.54 15 5.94 15H0.42ZM3.52 12.46H5.76C7.26667 12.46 8.39333 12.0867 9.14 11.34C9.88667 10.5933 10.26 9.46 10.26 7.94C10.26 6.42 9.88 5.29333 9.12 4.56C8.37333 3.81333 7.25333 3.44 5.76 3.44H3.52V12.46ZM18.9683 15.22C18.2483 15.22 17.6016 15.08 17.0283 14.8C16.4549 14.52 16.0083 14.14 15.6883 13.66C15.3683 13.18 15.2083 12.64 15.2083 12.04C15.2083 11.32 15.3949 10.7533 15.7683 10.34C16.1416 9.91333 16.7483 9.61333 17.5883 9.44C18.4283 9.25333 19.5416 9.16 20.9283 9.16H21.9883V10.72H20.9483C20.4283 10.72 19.9883 10.74 19.6283 10.78C19.2816 10.82 18.9949 10.8933 18.7683 11C18.5416 11.0933 18.3749 11.2133 18.2683 11.36C18.1749 11.5067 18.1283 11.6933 18.1283 11.92C18.1283 12.2933 18.2549 12.6 18.5083 12.84C18.7749 13.08 19.1549 13.2 19.6483 13.2C20.0349 13.2 20.3749 13.1133 20.6683 12.94C20.9749 12.7533 21.2149 12.5067 21.3883 12.2C21.5616 11.88 21.6483 11.52 21.6483 11.12V8.82C21.6483 8.23333 21.5149 7.82 21.2483 7.58C20.9816 7.32667 20.5283 7.2 19.8883 7.2C19.3549 7.2 18.7883 7.28667 18.1883 7.46C17.6016 7.62 17.0149 7.86667 16.4283 8.2L15.6083 6.18C15.9549 5.94 16.3749 5.73333 16.8683 5.56C17.3749 5.37333 17.9016 5.23333 18.4483 5.14C18.9949 5.03333 19.5149 4.98 20.0083 4.98C21.0349 4.98 21.8749 5.13333 22.5283 5.44C23.1949 5.73333 23.6949 6.19333 24.0283 6.82C24.3616 7.43333 24.5283 8.22667 24.5283 9.2V15H21.7083V13.02H21.8483C21.7683 13.4733 21.5949 13.8667 21.3283 14.2C21.0749 14.52 20.7483 14.7733 20.3483 14.96C19.9483 15.1333 19.4883 15.22 18.9683 15.22ZM30.5411 15.22C29.9678 15.22 29.4144 15.1733 28.8811 15.08C28.3478 14.9867 27.8611 14.86 27.4211 14.7C26.9811 14.54 26.5944 14.34 26.2611 14.1L26.9811 12.14C27.3144 12.34 27.6744 12.52 28.0611 12.68C28.4611 12.8267 28.8744 12.94 29.3011 13.02C29.7278 13.1 30.1478 13.14 30.5611 13.14C31.1344 13.14 31.5478 13.0533 31.8011 12.88C32.0678 12.6933 32.2011 12.4533 32.2011 12.16C32.2011 11.8933 32.1144 11.6933 31.9411 11.56C31.7678 11.4267 31.5144 11.3333 31.1811 11.28L29.0811 10.9C28.2544 10.7533 27.6144 10.4533 27.1611 10C26.7211 9.53333 26.5011 8.94 26.5011 8.22C26.5011 7.55333 26.6878 6.98 27.0611 6.5C27.4344 6.00667 27.9478 5.63333 28.6011 5.38C29.2678 5.11333 30.0211 4.98 30.8611 4.98C31.3411 4.98 31.8078 5.02 32.2611 5.1C32.7144 5.18 33.1411 5.3 33.5411 5.46C33.9544 5.62 34.3211 5.83333 34.6411 6.1L33.8811 8.04C33.6278 7.84 33.3278 7.66667 32.9811 7.52C32.6344 7.37333 32.2811 7.26 31.9211 7.18C31.5611 7.08667 31.2211 7.04 30.9011 7.04C30.3011 7.04 29.8678 7.14 29.6011 7.34C29.3344 7.52667 29.2011 7.76667 29.2011 8.06C29.2011 8.28667 29.2744 8.48 29.4211 8.64C29.5811 8.78667 29.8211 8.88667 30.1411 8.94L32.2411 9.32C33.1078 9.46667 33.7678 9.76 34.2211 10.2C34.6744 10.6267 34.9011 11.2133 34.9011 11.96C34.9011 12.64 34.7211 13.2267 34.3611 13.72C34.0011 14.2 33.4944 14.5733 32.8411 14.84C32.1878 15.0933 31.4211 15.22 30.5411 15.22ZM36.6248 15V0.899999H39.6448V7.02H39.3648C39.6715 6.36667 40.1248 5.86667 40.7248 5.52C41.3382 5.16 42.0315 4.98 42.8048 4.98C43.5915 4.98 44.2382 5.13333 44.7448 5.44C45.2515 5.73333 45.6315 6.18667 45.8848 6.8C46.1382 7.4 46.2648 8.16667 46.2648 9.1V15H43.2448V9.24C43.2448 8.78667 43.1848 8.42 43.0648 8.14C42.9582 7.84667 42.7915 7.64 42.5648 7.52C42.3515 7.38667 42.0782 7.32 41.7448 7.32C41.3182 7.32 40.9448 7.41333 40.6248 7.6C40.3182 7.77333 40.0782 8.02667 39.9048 8.36C39.7315 8.69333 39.6448 9.08 39.6448 9.52V15H36.6248Z" fill="#4880FF"/>
<path d="M53.8194 15.22C53.086 15.22 52.3727 15.1533 51.6794 15.02C50.9994 14.9 50.366 14.7267 49.7794 14.5C49.1927 14.26 48.6794 13.98 48.2394 13.66L49.1394 11.22C49.566 11.5133 50.026 11.7667 50.5194 11.98C51.0127 12.1933 51.5394 12.36 52.0994 12.48C52.6594 12.5867 53.2327 12.64 53.8194 12.64C54.7927 12.64 55.486 12.4933 55.8994 12.2C56.3127 11.8933 56.5194 11.5133 56.5194 11.06C56.5194 10.8067 56.4527 10.5867 56.3194 10.4C56.1994 10.2133 55.9927 10.0533 55.6994 9.92C55.4194 9.77333 55.0327 9.65333 54.5394 9.56L52.2794 9.08C50.9994 8.81333 50.046 8.36 49.4194 7.72C48.806 7.06667 48.4994 6.21333 48.4994 5.16C48.4994 4.25333 48.7394 3.46667 49.2194 2.8C49.7127 2.13333 50.386 1.61333 51.2394 1.24C52.106 0.866666 53.0994 0.68 54.2194 0.68C54.8727 0.68 55.4994 0.746666 56.0994 0.879999C56.6994 0.999999 57.2527 1.18 57.7594 1.42C58.266 1.66 58.706 1.94667 59.0794 2.28L58.1794 4.56C57.646 4.13333 57.046 3.81333 56.3794 3.6C55.7127 3.37333 54.986 3.26 54.1994 3.26C53.6394 3.26 53.1594 3.33333 52.7594 3.48C52.3727 3.62667 52.0727 3.83333 51.8594 4.1C51.6594 4.36667 51.5594 4.67333 51.5594 5.02C51.5594 5.40667 51.6994 5.72 51.9794 5.96C52.2594 6.2 52.746 6.39333 53.4394 6.54L55.6994 7.02C57.006 7.3 57.9794 7.75333 58.6194 8.38C59.2594 8.99333 59.5794 9.80667 59.5794 10.82C59.5794 11.7 59.3394 12.4733 58.8594 13.14C58.3927 13.7933 57.726 14.3067 56.8594 14.68C56.006 15.04 54.9927 15.22 53.8194 15.22ZM66.0152 15.22C64.6152 15.22 63.5752 14.88 62.8952 14.2C62.2152 13.52 61.8752 12.52 61.8752 11.2V7.44H60.0152V5.18H61.8752V2.3H64.8952V5.18H67.7952V7.44H64.8952V11.08C64.8952 11.64 65.0218 12.06 65.2752 12.34C65.5418 12.62 65.9618 12.76 66.5352 12.76C66.7085 12.76 66.8885 12.74 67.0752 12.7C67.2752 12.66 67.4885 12.6067 67.7152 12.54L68.1552 14.74C67.8752 14.8867 67.5418 15 67.1552 15.08C66.7685 15.1733 66.3885 15.22 66.0152 15.22ZM72.6011 15.22C71.8811 15.22 71.2344 15.08 70.6611 14.8C70.0878 14.52 69.6411 14.14 69.3211 13.66C69.0011 13.18 68.8411 12.64 68.8411 12.04C68.8411 11.32 69.0278 10.7533 69.4011 10.34C69.7744 9.91333 70.3811 9.61333 71.2211 9.44C72.0611 9.25333 73.1744 9.16 74.5611 9.16H75.6211V10.72H74.5811C74.0611 10.72 73.6211 10.74 73.2611 10.78C72.9144 10.82 72.6278 10.8933 72.4011 11C72.1744 11.0933 72.0078 11.2133 71.9011 11.36C71.8078 11.5067 71.7611 11.6933 71.7611 11.92C71.7611 12.2933 71.8878 12.6 72.1411 12.84C72.4078 13.08 72.7878 13.2 73.2811 13.2C73.6678 13.2 74.0078 13.1133 74.3011 12.94C74.6078 12.7533 74.8478 12.5067 75.0211 12.2C75.1944 11.88 75.2811 11.52 75.2811 11.12V8.82C75.2811 8.23333 75.1478 7.82 74.8811 7.58C74.6144 7.32667 74.1611 7.2 73.5211 7.2C72.9878 7.2 72.4211 7.28667 71.8211 7.46C71.2344 7.62 70.6478 7.86667 70.0611 8.2L69.2411 6.18C69.5878 5.94 70.0078 5.73333 70.5011 5.56C71.0078 5.37333 71.5344 5.23333 72.0811 5.14C72.6278 5.03333 73.1478 4.98 73.6411 4.98C74.6678 4.98 75.5078 5.13333 76.1611 5.44C76.8278 5.73333 77.3278 6.19333 77.6611 6.82C77.9944 7.43333 78.1611 8.22667 78.1611 9.2V15H75.3411V13.02H75.4811C75.4011 13.4733 75.2278 13.8667 74.9611 14.2C74.7078 14.52 74.3811 14.7733 73.9811 14.96C73.5811 15.1333 73.1211 15.22 72.6011 15.22ZM85.1939 15.22C84.1272 15.22 83.1939 15.0133 82.3939 14.6C81.6072 14.1733 81.0006 13.5733 80.5739 12.8C80.1472 12.0267 79.9339 11.1133 79.9339 10.06C79.9339 9.00667 80.1472 8.1 80.5739 7.34C81.0006 6.58 81.6072 6 82.3939 5.6C83.1939 5.18667 84.1272 4.98 85.1939 4.98C85.8339 4.98 86.4672 5.07333 87.0939 5.26C87.7339 5.44667 88.2539 5.71333 88.6539 6.06L87.8139 8.14C87.4939 7.87333 87.1206 7.66667 86.6939 7.52C86.2672 7.36 85.8672 7.28 85.4939 7.28C84.7072 7.28 84.0939 7.52667 83.6539 8.02C83.2272 8.5 83.0139 9.18667 83.0139 10.08C83.0139 10.96 83.2272 11.6533 83.6539 12.16C84.0939 12.6533 84.7072 12.9 85.4939 12.9C85.8672 12.9 86.2672 12.8267 86.6939 12.68C87.1206 12.5333 87.4939 12.32 87.8139 12.04L88.6539 14.12C88.2539 14.4533 87.7339 14.72 87.0939 14.92C86.4539 15.12 85.8206 15.22 85.1939 15.22ZM89.9647 15V0.899999H92.9847V9.24H93.0247L96.6447 5.18H100.225L95.5647 10.44V9.3L100.425 15H96.7847L93.0247 10.76H92.9847V15H89.9647Z" fill="CurrentColor"/>
</svg>
